<svg xmlns="http://www.w3.org/2000/svg" width="512" height="512" viewBox="0 0 512 512">
<defs>
  <linearGradient id="sunGrad" x1="0" y1="0" x2="0" y2="1"><stop offset="0" stop-color="#FFF7A8"/><stop offset="0.48" stop-color="#FFD646"/><stop offset="1" stop-color="#FFAA16"/></linearGradient>
  <radialGradient id="sunGlow"><stop offset="0" stop-color="#FFD84D" stop-opacity=".55"/><stop offset="1" stop-color="#FFD84D" stop-opacity="0"/></radialGradient>
  <linearGradient id="moonGrad" x1="0" y1="0" x2="1" y2="1"><stop offset="0" stop-color="#F8FBFF"/><stop offset=".55" stop-color="#D8E4F2"/><stop offset="1" stop-color="#AFC3D8"/></linearGradient>
  <linearGradient id="cloudLight" x1="0" y1="0" x2="0" y2="1"><stop offset="0" stop-color="#F8FBFF"/><stop offset=".45" stop-color="#DDE7F1"/><stop offset="1" stop-color="#A8B8C8"/></linearGradient>
  <linearGradient id="cloudMid" x1="0" y1="0" x2="0" y2="1"><stop offset="0" stop-color="#C5D2DF"/><stop offset=".55" stop-color="#8EA0B2"/><stop offset="1" stop-color="#526476"/></linearGradient>
  <linearGradient id="cloudDark" x1="0" y1="0" x2="0" y2="1"><stop offset="0" stop-color="#8393A4"/><stop offset=".55" stop-color="#506174"/><stop offset="1" stop-color="#2C3948"/></linearGradient>
  <linearGradient id="rainGrad" x1="0" y1="0" x2="0" y2="1"><stop offset="0" stop-color="#8ED9FF"/><stop offset="1" stop-color="#258BD2"/></linearGradient>
  <linearGradient id="iceGrad" x1="0" y1="0" x2="0" y2="1"><stop offset="0" stop-color="#F5FCFF"/><stop offset="1" stop-color="#79C8F0"/></linearGradient>
  <linearGradient id="hotGrad" x1="0" y1="0" x2="0" y2="1"><stop offset="0" stop-color="#FFD05B"/><stop offset="1" stop-color="#F15A24"/></linearGradient>
  <linearGradient id="coldGrad" x1="0" y1="0" x2="0" y2="1"><stop offset="0" stop-color="#DFF7FF"/><stop offset="1" stop-color="#3DA4D8"/></linearGradient>
  <linearGradient id="rainbowGrad" x1="0" y1="0" x2="1" y2="1"><stop offset="0" stop-color="#F75C5C"/><stop offset=".2" stop-color="#FFB13B"/><stop offset=".4" stop-color="#FFE35A"/><stop offset=".6" stop-color="#5AD48B"/><stop offset=".8" stop-color="#54A7F7"/><stop offset="1" stop-color="#9E6AF2"/></linearGradient>
  <filter id="shadow" x="-30%" y="-30%" width="160%" height="180%"><feDropShadow dx="0" dy="14" stdDeviation="12" flood-color="#07111D" flood-opacity=".32"/></filter>
  <filter id="softGlow" x="-70%" y="-70%" width="240%" height="240%"><feGaussianBlur stdDeviation="18"/></filter>
  <filter id="smallShadow" x="-40%" y="-40%" width="180%" height="180%"><feDropShadow dx="0" dy="7" stdDeviation="6" flood-color="#07111D" flood-opacity=".25"/></filter>
</defs><g><path d="M92 102 L94.24 107.76 L100 110 L94.24 112.24 L92 118 L89.76 112.24 L84 110 L89.76 107.76 Z" fill="#EAF4FF" opacity=".9"/><path d="M372 96 L373.68 100.32 L378 102 L373.68 103.68 L372 108 L370.32 103.68 L366 102 L370.32 100.32 Z" fill="#EAF4FF" opacity=".9"/><path d="M405 199 L406.4 202.6 L410 204 L406.4 205.4 L405 209 L403.6 205.4 L400 204 L403.6 202.6 Z" fill="#EAF4FF" opacity=".9"/><g filter="url(#smallShadow)"><circle cx="210" cy="205" r="110" fill="url(#moonGrad)"/><circle cx="244" cy="189" r="102" fill="#0F1720"/><circle cx="185" cy="187" r="9" fill="#9EB3C8" opacity=".35"/><circle cx="200" cy="233" r="6" fill="#8DA4BA" opacity=".28"/></g><g transform="translate(145 252) scale(0.78)" filter="url(#shadow)">
      <path d="M62 138 C27 138 5 117 5 88 C5 59 28 38 57 38 C70 38 82 42 92 49 C103 20 130 3 163 3 C201 3 231 27 239 60 C249 54 261 51 275 51 C307 51 332 75 332 105 C332 128 313 145 286 145 H68 C65 145 64 145 62 138 Z" fill="url(#cloudLight)" stroke="#DDE7F1" stroke-opacity=".35" stroke-width="2"/>
      <ellipse cx="166" cy="123" rx="104" ry="24" fill="#1B2B3B" opacity=".10"/>
    </g></g></svg>