<svg xmlns="http://www.w3.org/2000/svg" width="512" height="512" viewBox="0 0 512 512">
<defs>
  <linearGradient id="sunGrad" x1="0" y1="0" x2="0" y2="1"><stop offset="0" stop-color="#FFF7A8"/><stop offset="0.48" stop-color="#FFD646"/><stop offset="1" stop-color="#FFAA16"/></linearGradient>
  <radialGradient id="sunGlow"><stop offset="0" stop-color="#FFD84D" stop-opacity=".55"/><stop offset="1" stop-color="#FFD84D" stop-opacity="0"/></radialGradient>
  <linearGradient id="moonGrad" x1="0" y1="0" x2="1" y2="1"><stop offset="0" stop-color="#F8FBFF"/><stop offset=".55" stop-color="#D8E4F2"/><stop offset="1" stop-color="#AFC3D8"/></linearGradient>
  <linearGradient id="cloudLight" x1="0" y1="0" x2="0" y2="1"><stop offset="0" stop-color="#F8FBFF"/><stop offset=".45" stop-color="#DDE7F1"/><stop offset="1" stop-color="#A8B8C8"/></linearGradient>
  <linearGradient id="cloudMid" x1="0" y1="0" x2="0" y2="1"><stop offset="0" stop-color="#C5D2DF"/><stop offset=".55" stop-color="#8EA0B2"/><stop offset="1" stop-color="#526476"/></linearGradient>
  <linearGradient id="cloudDark" x1="0" y1="0" x2="0" y2="1"><stop offset="0" stop-color="#8393A4"/><stop offset=".55" stop-color="#506174"/><stop offset="1" stop-color="#2C3948"/></linearGradient>
  <linearGradient id="rainGrad" x1="0" y1="0" x2="0" y2="1"><stop offset="0" stop-color="#8ED9FF"/><stop offset="1" stop-color="#258BD2"/></linearGradient>
  <linearGradient id="iceGrad" x1="0" y1="0" x2="0" y2="1"><stop offset="0" stop-color="#F5FCFF"/><stop offset="1" stop-color="#79C8F0"/></linearGradient>
  <linearGradient id="hotGrad" x1="0" y1="0" x2="0" y2="1"><stop offset="0" stop-color="#FFD05B"/><stop offset="1" stop-color="#F15A24"/></linearGradient>
  <linearGradient id="coldGrad" x1="0" y1="0" x2="0" y2="1"><stop offset="0" stop-color="#DFF7FF"/><stop offset="1" stop-color="#3DA4D8"/></linearGradient>
  <linearGradient id="rainbowGrad" x1="0" y1="0" x2="1" y2="1"><stop offset="0" stop-color="#F75C5C"/><stop offset=".2" stop-color="#FFB13B"/><stop offset=".4" stop-color="#FFE35A"/><stop offset=".6" stop-color="#5AD48B"/><stop offset=".8" stop-color="#54A7F7"/><stop offset="1" stop-color="#9E6AF2"/></linearGradient>
  <filter id="shadow" x="-30%" y="-30%" width="160%" height="180%"><feDropShadow dx="0" dy="14" stdDeviation="12" flood-color="#07111D" flood-opacity=".32"/></filter>
  <filter id="softGlow" x="-70%" y="-70%" width="240%" height="240%"><feGaussianBlur stdDeviation="18"/></filter>
  <filter id="smallShadow" x="-40%" y="-40%" width="180%" height="180%"><feDropShadow dx="0" dy="7" stdDeviation="6" flood-color="#07111D" flood-opacity=".25"/></filter>
</defs><g><g transform="translate(90 115) scale(1.0)" filter="url(#shadow)">
      <path d="M62 138 C27 138 5 117 5 88 C5 59 28 38 57 38 C70 38 82 42 92 49 C103 20 130 3 163 3 C201 3 231 27 239 60 C249 54 261 51 275 51 C307 51 332 75 332 105 C332 128 313 145 286 145 H68 C65 145 64 145 62 138 Z" fill="url(#cloudDark)" stroke="#DDE7F1" stroke-opacity=".35" stroke-width="2"/>
      <ellipse cx="166" cy="123" rx="104" ry="24" fill="#1B2B3B" opacity=".10"/>
    </g><path d="M150 305.7 C135.6 325.5 137.4 341.7 150 348 C162.6 341.7 164.4 325.5 150 305.7 Z" fill="url(#rainGrad)" transform="skewX(-4)" opacity="1" filter="url(#smallShadow)"/><path d="M215 325.7 C200.6 345.5 202.4 361.7 215 368 C227.6 361.7 229.4 345.5 215 325.7 Z" fill="url(#rainGrad)" transform="skewX(-4)" opacity="1" filter="url(#smallShadow)"/><path d="M280 305.7 C265.6 325.5 267.4 341.7 280 348 C292.6 341.7 294.4 325.5 280 305.7 Z" fill="url(#rainGrad)" transform="skewX(-4)" opacity="1" filter="url(#smallShadow)"/><path d="M345 325.7 C330.6 345.5 332.4 361.7 345 368 C357.6 361.7 359.4 345.5 345 325.7 Z" fill="url(#rainGrad)" transform="skewX(-4)" opacity="1" filter="url(#smallShadow)"/></g></svg>