<svg xmlns="http://www.w3.org/2000/svg" viewBox="0 0 760 320" role="img" aria-labelledby="title desc">
  <title id="title">The Feral Grounds</title>
  <desc id="desc">Rough sage and red wordmark with native clover flowers.</desc>
  <defs>
    <filter id="roughen">
      <feTurbulence type="fractalNoise" baseFrequency=".035" numOctaves="3" seed="18" result="noise"/>
      <feDisplacementMap in="SourceGraphic" in2="noise" scale="6"/>
    </filter>
    <pattern id="speckle" width="42" height="42" patternUnits="userSpaceOnUse">
      <path d="M4 9h2M16 31h1M29 6h2M37 22h1M12 17h1" stroke="#8c6d34" stroke-width="1" opacity=".55"/>
    </pattern>
  </defs>
  <rect width="760" height="320" fill="#050603"/>
  <rect width="760" height="320" fill="url(#speckle)" opacity=".32"/>
  <g fill="none" stroke-linecap="round" stroke-linejoin="round" opacity=".72">
    <path d="M54 262c72-56 132-47 202-8 48 26 113 24 165-4 68-37 136-47 208-8" stroke="#4d6031" stroke-width="5"/>
    <path d="M72 277c109-26 201-15 287-1 91 15 178 13 283-18" stroke="#2e3f22" stroke-width="3"/>
  </g>
  <g transform="translate(565 43)" stroke="#8d1f25" stroke-width="4" fill="none" opacity=".95">
    <path d="M38 212V88"/>
    <path d="M38 96c-38 30-43 77-6 108 41-26 48-78 6-108Z"/>
    <path d="M38 96c38 30 43 77 6 108-41-26-48-78-6-108Z"/>
    <path d="M38 76c-29 23-32 54-4 75 31-20 37-56 4-75Z"/>
    <path d="M38 76c29 23 32 54 4 75-31-20-37-56-4-75Z"/>
    <path d="M38 58c-20 18-23 39-3 55 22-16 26-40 3-55Z"/>
    <path d="M38 58c20 18 23 39 3 55-22-16-26-40-3-55Z"/>
  </g>
  <g transform="translate(62 184) scale(.72)" stroke="#8d1f25" stroke-width="4" fill="none" opacity=".86">
    <path d="M38 212V88"/>
    <path d="M38 96c-38 30-43 77-6 108 41-26 48-78 6-108Z"/>
    <path d="M38 96c38 30 43 77 6 108-41-26-48-78-6-108Z"/>
    <path d="M38 76c-29 23-32 54-4 75 31-20 37-56 4-75Z"/>
    <path d="M38 76c29 23 32 54 4 75-31-20-37-56-4-75Z"/>
  </g>
  <g filter="url(#roughen)">
    <text x="177" y="88" fill="#6f906e" font-family="Arial Black, Impact, sans-serif" font-size="46" font-style="italic" letter-spacing="4" transform="skewX(-11)">THE</text>
    <text x="113" y="205" fill="#6f906e" font-family="Arial Black, Impact, sans-serif" font-size="124" font-style="italic" letter-spacing="3" transform="skewX(-10)">FERAL</text>
    <text x="236" y="276" fill="#9e4a4d" font-family="Arial Black, Impact, sans-serif" font-size="58" font-style="italic" letter-spacing="15" transform="skewX(-7)">GROUNDS</text>
  </g>
</svg>
