<svg xmlns="http://www.w3.org/2000/svg" viewBox="0 0 600 600" role="img" aria-labelledby="title desc">
  <title id="title">Illustrated Portland metro service area map</title>
  <desc id="desc">A square stylized map showing Portland and nearby communities served by Urban Yards.</desc>
  <defs>
    <linearGradient id="paper" x1="0" y1="0" x2="1" y2="1">
      <stop stop-color="#f8f3e6"/>
      <stop offset="1" stop-color="#e7ecd9"/>
    </linearGradient>
    <linearGradient id="water" x1="0" y1="0" x2="0" y2="1">
      <stop stop-color="#a8d0cf"/>
      <stop offset="1" stop-color="#7fb4b4"/>
    </linearGradient>
    <filter id="shadow" x="-40%" y="-40%" width="180%" height="180%">
      <feDropShadow dx="0" dy="5" stdDeviation="5" flood-color="#123f31" flood-opacity=".2"/>
    </filter>
  </defs>
  <rect width="600" height="600" fill="url(#paper)"/>
  <path fill="#dfe8d3" d="M0 0h153l58 76-43 81 57 76-83 106 31 108-66 153H0zm400 0h200v141l-66 77 66 82v300H458l-60-106 47-109-61-88 49-92-56-83z"/>
  <path fill="#cfddc3" d="M143 0h185l42 88-62 64 42 86-57 83 36 124-65 155H103l62-147-48-118 73-102-52-82 51-73z"/>
  <path fill="#e9e8d0" d="M330 0h110l29 91-47 77 37 86-59 75 36 116-63 155H257l51-153-38-125 52-91-38-87 55-70z"/>
  <path fill="none" stroke="url(#water)" stroke-linecap="round" stroke-width="33" d="M294-25c-7 96 11 145-12 224-20 68-58 95-56 186 1 58 21 119 7 237"/>
  <path fill="none" stroke="#a8d0cf" stroke-linecap="round" stroke-width="18" d="M272 234c80 20 151 13 236-40 41-25 79-34 116-35"/>
  <g fill="none" stroke="#fffdf7" stroke-linecap="round" opacity=".94">
    <path stroke-width="5" d="M28 162c131 40 220 48 323 40 89-6 160 5 231 48"/>
    <path stroke-width="5" d="M85 527c91-108 156-198 218-299 64-102 126-151 245-207"/>
    <path stroke-width="4" d="M72 359c102-27 213-17 328 20 72 24 134 40 190 30"/>
    <path stroke-width="3" d="M168 12c21 116 37 223 39 343 1 91-9 158-31 245"/>
    <path stroke-width="3" d="M477 9c-37 101-61 209-71 317-9 109 4 190 40 274"/>
  </g>
  <g fill="none" stroke="#f5df98" stroke-dasharray="8 9" stroke-linecap="round" stroke-width="3" opacity=".9">
    <path d="M44 265c111 18 197 54 278 114 82 59 163 91 268 101"/>
    <path d="M228 32c30 103 78 178 146 240 60 54 108 136 149 270"/>
  </g>
  <g fill="#78956f" opacity=".84">
    <circle cx="66" cy="94" r="7"/><circle cx="95" cy="114" r="4"/><circle cx="540" cy="100" r="6"/>
    <circle cx="560" cy="130" r="4"/><circle cx="512" cy="521" r="7"/><circle cx="63" cy="494" r="6"/>
  </g>
  <g fill="#f7f1e3" stroke="#55764e" stroke-width="3">
    <circle cx="181" cy="396" r="8"/><circle cx="161" cy="468" r="8"/><circle cx="360" cy="493" r="8"/>
    <circle cx="426" cy="436" r="8"/><circle cx="480" cy="285" r="8"/><circle cx="303" cy="112" r="8"/>
  </g>
  <g fill="#123f31" font-family="Arial, sans-serif" font-size="16" font-weight="700">
    <text x="197" y="402">Beaverton</text><text x="177" y="492">Tigard</text><text x="376" y="517">Lake Oswego</text>
    <text x="442" y="462">Milwaukie</text><text x="496" y="291">Gresham</text><text x="319" y="118">Vancouver</text>
  </g>
  <g filter="url(#shadow)">
    <path fill="#123f31" d="M327 244c-25 0-45 20-45 45 0 36 45 88 45 88s45-52 45-88c0-25-20-45-45-45z"/>
    <circle cx="327" cy="289" r="17" fill="#e2aa21"/>
    <circle cx="327" cy="289" r="8" fill="#fffdf7"/>
  </g>
  <text x="378" y="297" fill="#123f31" font-family="Georgia, serif" font-size="34" font-weight="700">Portland</text>
  <text x="380" y="323" fill="#55764e" font-family="Arial, sans-serif" font-size="13" font-weight="700" letter-spacing="3">METRO AREA</text>
  <g transform="translate(0 523)">
    <path fill="#78956f" d="M0 77V54c41-35 78-35 119 0 38-46 84-48 130-2 53-54 105-51 157 0 40-41 80-43 120-8 42-45 74-48 74-12v45z"/>
    <path fill="#55764e" d="M0 77V66c50-32 99-30 147 6 48-29 97-30 150 1 48-32 98-36 150-5 62-26 105-23 153 9z"/>
  </g>
</svg>
