<svg xmlns="http://www.w3.org/2000/svg" viewBox="0 0 760 470" role="img" aria-labelledby="title desc">
  <title id="title">Illustrated Portland metro service area map</title>
  <desc id="desc">A stylized map showing Portland and nearby communities served by Urban Yards.</desc>
  <defs>
    <linearGradient id="paper" x1="0" y1="0" x2="1" y2="1">
      <stop stop-color="#f8f3e6"/>
      <stop offset="1" stop-color="#e7ecd9"/>
    </linearGradient>
    <linearGradient id="water" x1="0" y1="0" x2="0" y2="1">
      <stop stop-color="#a8d0cf"/>
      <stop offset="1" stop-color="#7fb4b4"/>
    </linearGradient>
    <filter id="shadow" x="-30%" y="-30%" width="160%" height="160%">
      <feDropShadow dx="0" dy="5" stdDeviation="5" flood-color="#123f31" flood-opacity=".18"/>
    </filter>
  </defs>
  <rect width="760" height="470" fill="url(#paper)"/>
  <path fill="#dfe8d3" d="M0 0h190l62 59-48 62 58 60-87 76 37 87-67 126H0zm475 0h285v129l-73 65 73 62v214H598l-66-88 51-87-73-69 54-74-72-71z"/>
  <path fill="#cfddc3" d="M178 0h217l47 72-75 48 48 66-64 62 42 99-74 123H127l77-119-57-94 87-77-62-62 58-59z"/>
  <path fill="#e9e8d0" d="M401 0h128l37 73-57 56 46 69-71 57 45 91-74 124H317l60-121-45-99 61-67-45-68 66-54z"/>
  <path fill="none" stroke="url(#water)" stroke-linecap="round" stroke-width="36" d="M355-22c-8 84 12 121-15 188-23 57-68 79-66 154 1 46 25 95 8 172"/>
  <path fill="none" stroke="#a8d0cf" stroke-linecap="round" stroke-width="20" d="M329 195c94 17 177 11 276-33 54-24 110-29 177-23"/>
  <g fill="none" stroke="#fffdf7" stroke-linecap="round" opacity=".92">
    <path stroke-width="5" d="M41 129c159 32 261 39 381 32 108-6 196 2 298 37"/>
    <path stroke-width="5" d="M124 423c104-78 179-146 254-226 78-83 152-119 289-164"/>
    <path stroke-width="4" d="M91 287c120-21 251-13 385 16 85 18 157 31 255 20"/>
    <path stroke-width="3" d="M198 19c24 89 44 172 46 263 1 73-11 125-36 188"/>
    <path stroke-width="3" d="M557 8c-42 80-71 164-82 249-11 85 4 150 45 213"/>
  </g>
  <g fill="none" stroke="#f5df98" stroke-dasharray="8 9" stroke-linecap="round" stroke-width="3" opacity=".9">
    <path d="M52 212c132 14 232 43 328 90 97 47 196 72 330 78"/>
    <path d="M273 27c35 82 91 142 171 192 70 43 128 108 176 213"/>
  </g>
  <g fill="#78956f" opacity=".84">
    <circle cx="88" cy="84" r="7"/><circle cx="119" cy="101" r="4"/><circle cx="673" cy="88" r="6"/>
    <circle cx="701" cy="114" r="4"/><circle cx="638" cy="413" r="7"/><circle cx="79" cy="382" r="6"/>
    <circle cx="104" cy="401" r="4"/><circle cx="177" cy="70" r="5"/>
  </g>
  <g fill="#f7f1e3" stroke="#55764e" stroke-width="3">
    <circle cx="214" cy="314" r="8"/><circle cx="185" cy="367" r="8"/><circle cx="433" cy="395" r="8"/>
    <circle cx="517" cy="349" r="8"/><circle cx="577" cy="232" r="8"/><circle cx="356" cy="92" r="8"/>
  </g>
  <g fill="#123f31" font-family="Arial, sans-serif" font-size="17" font-weight="700">
    <text x="230" y="320">Beaverton</text><text x="199" y="393">Tigard</text><text x="449" y="421">Lake Oswego</text>
    <text x="533" y="375">Milwaukie</text><text x="593" y="238">Gresham</text><text x="372" y="98">Vancouver</text>
  </g>
  <g filter="url(#shadow)">
    <path fill="#123f31" d="M386 178c-27 0-49 21-49 48 0 39 49 94 49 94s49-55 49-94c0-27-22-48-49-48z"/>
    <circle cx="386" cy="226" r="18" fill="#e2aa21"/>
    <circle cx="386" cy="226" r="8" fill="#fffdf7"/>
  </g>
  <text x="443" y="239" fill="#123f31" font-family="Georgia, serif" font-size="39" font-weight="700">Portland</text>
  <text x="445" y="269" fill="#55764e" font-family="Arial, sans-serif" font-size="15" font-weight="700" letter-spacing="3">METRO AREA</text>
  <g transform="translate(0 394)">
    <path fill="#78956f" d="M0 76V53c49-34 93-34 141 0 46-45 100-47 154-2 63-53 125-50 186 0 48-40 96-42 143-8 51-44 96-47 136-12v45z"/>
    <path fill="#55764e" d="M0 76V65c59-31 117-29 174 6 57-28 116-29 178 1 57-31 116-35 178-5 74-25 150-22 230 9z"/>
  </g>
</svg>
