<svg xmlns="http://www.w3.org/2000/svg" class="uy-scene" viewBox="0 0 1600 900" role="img" aria-labelledby="uyHeroTitle" preserveAspectRatio="xMidYMid slice"><title id="uyHeroTitle">Animated Pacific Northwest landscape with native plants and wildlife</title><defs><style><![CDATA[ :root{--uy-loop:30s}.uy-scene{width:100%;height:100%;display:block}.cloud-a{animation:cloudDriftA var(--uy-loop) linear infinite}.cloud-b{animation:cloudDriftB var(--uy-loop) linear infinite}.skyline{animation:parallaxTiny var(--uy-loop) ease-in-out infinite}.distant-hills{animation:parallaxSmall var(--uy-loop) ease-in-out infinite}.mid-hills{animation:parallaxMid var(--uy-loop) ease-in-out infinite}.pond{animation:pondShimmer var(--uy-loop) ease-in-out infinite;transform-origin:205px 578px}.canopy-sway{animation:canopySway var(--uy-loop) ease-in-out infinite;transform-origin:1406px 356px}.sway-slow,.flower-group-a,.flower-drift,.red-currant{animation:plantSway var(--uy-loop) ease-in-out infinite;transform-origin:bottom center}.flower-drift{animation-delay:-7.5s}.red-currant{animation-delay:-15s}.rabbit{animation:rabbitLife var(--uy-loop) ease-in-out infinite;transform-origin:645px 704px}.ear-left{animation:earLeft var(--uy-loop) ease-in-out infinite;transform-origin:658px 650px}.ear-right{animation:earRight var(--uy-loop) ease-in-out infinite;transform-origin:690px 650px}.robin{animation:robinHop var(--uy-loop) ease-in-out infinite;transform-origin:790px 733px}.chickadee{animation:chickadeeLook var(--uy-loop) ease-in-out infinite;transform-origin:1348px 183px}.butterfly{animation:butterflyPath var(--uy-loop) ease-in-out infinite;transform-origin:center}.bee{animation:beeCircle var(--uy-loop) ease-in-out infinite;transform-origin:center}@keyframes cloudDriftA{0%{transform:translateX(-70px)}50%{transform:translateX(70px)}100%{transform:translateX(-70px)}}@keyframes cloudDriftB{0%{transform:translateX(90px)}50%{transform:translateX(-90px)}100%{transform:translateX(90px)}}@keyframes parallaxTiny{0%,100%{transform:translateX(0)}50%{transform:translateX(-2px)}}@keyframes parallaxSmall{0%,100%{transform:translateX(0)}50%{transform:translateX(5px)}}@keyframes parallaxMid{0%,100%{transform:translateX(0)}50%{transform:translateX(-8px)}}@keyframes pondShimmer{0%,100%{opacity:.82;transform:scaleX(1)}50%{opacity:.9;transform:scaleX(1.015)}}@keyframes canopySway{0%,100%{transform:rotate(0deg) translateX(0)}50%{transform:rotate(.9deg) translateX(4px)}}@keyframes plantSway{0%,100%{transform:rotate(0deg) translateX(0)}25%{transform:rotate(.7deg) translateX(3px)}50%{transform:rotate(0deg) translateX(0)}75%{transform:rotate(-.7deg) translateX(-3px)}}@keyframes rabbitLife{0%,100%{transform:translate(0,0) rotate(0deg)}15%,22%{transform:translate(0,0) rotate(-1deg)}33%,38%{transform:translate(8px,-5px) rotate(.5deg)}41%{transform:translate(16px,0) rotate(0deg)}54%,63%{transform:translate(16px,0) rotate(1deg)}74%,80%{transform:translate(8px,-5px) rotate(-.5deg)}}@keyframes earLeft{0%,100%{transform:rotate(0deg)}16%,18%{transform:rotate(-10deg)}20%,22%{transform:rotate(8deg)}24%{transform:rotate(0deg)}50%,52%{transform:rotate(-7deg)}54%{transform:rotate(0deg)}83%,85%{transform:rotate(-8deg)}}@keyframes earRight{0%,100%{transform:rotate(0deg)}17%,19%{transform:rotate(9deg)}21%,23%{transform:rotate(-6deg)}25%{transform:rotate(0deg)}51%,53%{transform:rotate(6deg)}55%{transform:rotate(0deg)}84%,86%{transform:rotate(7deg)}}@keyframes robinHop{0%,100%{transform:translate(0,0) rotate(0deg)}10%{transform:translate(0,0) rotate(-2deg)}14%{transform:translate(18px,-18px) rotate(4deg)}18%{transform:translate(35px,0) rotate(0deg)}43%{transform:translate(35px,0) rotate(2deg)}47%{transform:translate(18px,-18px) rotate(-4deg)}51%{transform:translate(0,0) rotate(0deg)}}@keyframes chickadeeLook{0%,100%{transform:rotate(0deg)}36%,48%{transform:rotate(-4deg)}62%,72%{transform:rotate(3deg)}}@keyframes butterflyPath{0%,100%{transform:translate(470px,330px) rotate(0deg) scale(1)}12.5%{transform:translate(540px,292px) rotate(18deg) scale(.94)}25%{transform:translate(625px,330px) rotate(-10deg) scale(1.03)}37.5%{transform:translate(540px,378px) rotate(-24deg) scale(.96)}50%{transform:translate(470px,330px) rotate(0deg) scale(1)}62.5%{transform:translate(400px,292px) rotate(18deg) scale(.94)}75%{transform:translate(315px,330px) rotate(-10deg) scale(1.03)}87.5%{transform:translate(400px,378px) rotate(-24deg) scale(.96)}}@keyframes beeCircle{0%,100%{transform:translate(1285px,712px) rotate(0deg)}25%{transform:translate(1330px,678px) rotate(16deg)}50%{transform:translate(1375px,712px) rotate(0deg)}75%{transform:translate(1330px,746px) rotate(-16deg)}}@media (prefers-reduced-motion:reduce){.uy-scene *{animation:none!important}}
]]></style><linearGradient id="sky" x1="0" x2="0" y1="0" y2="1"><stop offset="0%" stop-color="#f8ecd8"/><stop offset="100%" stop-color="#e8ddc8"/></linearGradient><linearGradient id="pond" x1="0" x2="1" y1="0" y2="1"><stop offset="0%" stop-color="#89a995"/><stop offset="100%" stop-color="#5f8578"/></linearGradient><filter id="softShadow" x="-20%" y="-20%" width="140%" height="140%"><feDropShadow dx="0" dy="8" stdDeviation="8" flood-color="#183c33" flood-opacity=".18"/></filter></defs><rect width="1600" height="900" fill="url(#sky)"/><g class="clouds"><g class="cloud cloud-a" opacity=".72"><ellipse cx="160" cy="135" rx="58" ry="22" fill="#fffaf2"/><ellipse cx="110" cy="143" rx="38" ry="16" fill="#fffaf2"/><ellipse cx="210" cy="146" rx="46" ry="16" fill="#fffaf2"/></g><g class="cloud cloud-b" opacity=".62"><ellipse cx="1060" cy="115" rx="70" ry="21" fill="#fffaf2"/><ellipse cx="1002" cy="124" rx="42" ry="15" fill="#fffaf2"/><ellipse cx="1120" cy="126" rx="48" ry="14" fill="#fffaf2"/></g></g><g class="skyline" opacity=".28"><rect x="910" y="236" width="34" height="112" fill="#76927d"/><rect x="958" y="200" width="52" height="148" fill="#6f8d79"/><rect x="1030" y="260" width="38" height="88" fill="#76927d"/><rect x="1082" y="218" width="68" height="130" fill="#6f8d79"/><rect x="1174" y="188" width="50" height="160" fill="#789682"/><rect x="1240" y="238" width="76" height="110" fill="#6b8975"/><rect x="1332" y="258" width="36" height="90" fill="#789682"/></g><g class="distant-hills"><path d="M0 385 C180 305 350 320 540 377 C720 430 905 282 1105 332 C1270 374 1400 318 1600 352 L1600 900 L0 900 Z" fill="#c5d5b2"/><path d="M0 437 C255 355 420 405 610 440 C830 480 1040 365 1250 415 C1405 450 1515 415 1600 430 L1600 900 L0 900 Z" fill="#9cb889"/></g><g class="mid-hills"><path d="M0 525 C230 465 415 520 610 570 C760 610 885 505 1050 500 C1250 495 1395 570 1600 505 L1600 900 L0 900 Z" fill="#769a65"/><path d="M0 605 C190 560 405 610 615 665 C785 710 945 610 1160 600 C1340 590 1470 635 1600 585 L1600 900 L0 900 Z" fill="#628d61"/><path d="M145 574 C232 522 405 520 525 570 C420 585 285 592 145 574 Z" fill="#416f5c" opacity=".72"/></g><ellipse class="pond" cx="205" cy="578" rx="172" ry="56" fill="url(#pond)" opacity=".82"/><g class="tree-grove"><path d="M1295 470 C1260 425 1290 365 1334 350 C1330 296 1398 254 1450 296 C1496 262 1565 300 1546 365 C1600 395 1578 475 1515 475 Z" fill="#245e45"/><path d="M1406 274 L1406 570" stroke="#183b35" stroke-width="22" stroke-linecap="round"/><path class="canopy-sway" d="M1250 315 C1212 278 1238 220 1285 217 C1302 158 1388 145 1425 200 C1485 178 1545 236 1514 295 C1554 335 1520 398 1456 386 C1410 432 1324 407 1322 342 C1295 353 1268 340 1250 315 Z" fill="#2d724f"/><path d="M1405 335 C1364 315 1340 285 1325 245" stroke="#102e2b" stroke-width="7" stroke-linecap="round" fill="none"/><path d="M1405 352 C1450 330 1470 298 1488 260" stroke="#102e2b" stroke-width="7" stroke-linecap="round" fill="none"/></g><g class="plant-bed right-bed" filter="url(#softShadow)"><path d="M1015 684 C1080 580 1225 565 1305 655 C1350 610 1440 645 1455 714 C1342 758 1158 760 1015 684 Z" fill="#245d45"/><g class="flowers flower-group-a"><circle cx="1150" cy="655" r="9" fill="#f8efe0"/><circle cx="1165" cy="647" r="9" fill="#f8efe0"/><circle cx="1162" cy="664" r="9" fill="#f8efe0"/><circle cx="1153" cy="664" r="5" fill="#e0a914"/><circle cx="1244" cy="621" r="8" fill="#f8efe0"/><circle cx="1258" cy="613" r="8" fill="#f8efe0"/><circle cx="1260" cy="630" r="8" fill="#f8efe0"/><circle cx="1250" cy="626" r="5" fill="#e0a914"/><circle cx="1388" cy="692" r="8" fill="#e9a91a"/><circle cx="1402" cy="685" r="8" fill="#e9a91a"/><circle cx="1400" cy="702" r="8" fill="#e9a91a"/><circle cx="1392" cy="697" r="4" fill="#fff4d8"/></g><g class="red-currant"><path d="M1405 492 C1388 558 1372 613 1347 675" stroke="#56744d" stroke-width="8" fill="none" stroke-linecap="round"/><ellipse cx="1389" cy="530" rx="12" ry="28" fill="#b55251" transform="rotate(-24 1389 530)"/><ellipse cx="1368" cy="582" rx="12" ry="30" fill="#bc5e58" transform="rotate(-22 1368 582)"/><ellipse cx="1348" cy="635" rx="12" ry="28" fill="#b55251" transform="rotate(-18 1348 635)"/></g></g><g class="foreground-plants"><g class="cattails sway-slow"><path d="M84 875 C120 760 132 648 122 512" stroke="#1f5a48" stroke-width="18" fill="none"/><path d="M140 865 C155 745 182 650 227 555" stroke="#24634f" stroke-width="13" fill="none"/><path d="M232 860 C260 750 330 690 392 625" stroke="#2f7556" stroke-width="13" fill="none"/><rect x="106" y="448" width="24" height="104" rx="12" fill="#8c5b2d" transform="rotate(-7 118 500)"/><rect x="218" y="510" width="22" height="89" rx="11" fill="#87552c" transform="rotate(15 229 554)"/><rect x="362" y="595" width="20" height="74" rx="10" fill="#8a552b" transform="rotate(22 372 632)"/></g><g class="ferns"><path d="M40 900 C98 805 134 760 218 710 C165 800 115 850 88 900 Z" fill="#286149"/><path d="M240 900 C290 805 360 750 455 720 C380 800 335 858 318 900 Z" fill="#2f6f4d"/><path d="M1080 900 C1120 795 1195 720 1300 675 C1230 780 1190 846 1168 900 Z" fill="#2d684a"/><path d="M1220 900 C1280 790 1390 735 1510 720 C1420 790 1360 850 1335 900 Z" fill="#397650"/></g><g class="flower-drift"><circle cx="478" cy="760" r="10" fill="#f6ecd8"/><circle cx="492" cy="751" r="10" fill="#f6ecd8"/><circle cx="494" cy="768" r="10" fill="#f6ecd8"/><circle cx="484" cy="765" r="5" fill="#e0a914"/><circle cx="730" cy="812" r="10" fill="#f6ecd8"/><circle cx="744" cy="803" r="10" fill="#f6ecd8"/><circle cx="746" cy="820" r="10" fill="#f6ecd8"/><circle cx="735" cy="816" r="5" fill="#e0a914"/><circle cx="828" cy="715" r="9" fill="#e0a914"/><circle cx="842" cy="707" r="9" fill="#e0a914"/><circle cx="843" cy="724" r="9" fill="#e0a914"/><circle cx="833" cy="720" r="4" fill="#fff4d8"/><circle cx="1024" cy="760" r="8" fill="#927ab5"/><circle cx="1038" cy="754" r="8" fill="#927ab5"/><circle cx="1036" cy="770" r="8" fill="#927ab5"/><circle cx="1028" cy="766" r="4" fill="#fff4d8"/></g></g><g class="animals"><g class="rabbit"><ellipse cx="610" cy="682" rx="60" ry="45" fill="#a97b52"/><circle cx="675" cy="652" r="34" fill="#b78a5c"/><ellipse class="ear ear-left" cx="658" cy="604" rx="15" ry="55" fill="#b98d61" transform="rotate(-18 658 604)"/><ellipse class="ear ear-right" cx="690" cy="605" rx="14" ry="52" fill="#c39a70" transform="rotate(18 690 605)"/><circle cx="687" cy="645" r="5" fill="#102e2b"/><circle cx="604" cy="681" r="15" fill="#8e6749"/><ellipse cx="645" cy="724" rx="38" ry="10" fill="#2c4d3f" opacity=".18"/></g><g class="robin"><ellipse cx="790" cy="662" rx="44" ry="25" fill="#37403a" transform="rotate(8 790 662)"/><ellipse cx="775" cy="674" rx="30" ry="22" fill="#c65d2e"/><circle cx="748" cy="648" r="21" fill="#333b35"/><circle cx="742" cy="643" r="3.5" fill="#101c1a"/><path d="M728 650 L700 640 L728 636 Z" fill="#c98a26"/><path d="M824 662 L884 642 L838 684 Z" fill="#282f2d"/><path d="M782 690 L770 724" stroke="#3b2b22" stroke-width="5"/><path d="M802 690 L813 724" stroke="#3b2b22" stroke-width="5"/><ellipse cx="790" cy="733" rx="52" ry="8" fill="#2c4d3f" opacity=".18"/></g><g class="chickadee"><ellipse cx="1348" cy="183" rx="37" ry="22" fill="#eee7d5"/><path d="M1314 175 C1330 140 1372 143 1392 174 C1370 165 1344 168 1314 175 Z" fill="#172724"/><circle cx="1330" cy="171" r="3" fill="#0c1918"/><path d="M1310 177 L1286 170 L1310 166 Z" fill="#27342f"/><path d="M1378 184 L1430 169 L1395 199 Z" fill="#33433c"/></g><g class="butterfly"><ellipse cx="0" cy="0" rx="14" ry="25" fill="#e4a51b" transform="rotate(-28)"/><ellipse cx="26" cy="0" rx="14" ry="25" fill="#e4a51b" transform="rotate(28 26 0)"/><ellipse cx="6" cy="26" rx="10" ry="16" fill="#f0c34d" transform="rotate(25 6 26)"/><ellipse cx="22" cy="26" rx="10" ry="16" fill="#f0c34d" transform="rotate(-25 22 26)"/><rect x="12" y="-8" width="6" height="45" rx="3" fill="#2b2a24"/></g><g class="bee"><ellipse cx="0" cy="0" rx="16" ry="10" fill="#e5ad1e"/><path d="M-7 -8 L-7 8 M2 -9 L2 9 M10 -6 L10 6" stroke="#192722" stroke-width="3"/><ellipse cx="-4" cy="-13" rx="11" ry="7" fill="#f8f3e7" opacity=".7"/><ellipse cx="7" cy="-13" rx="11" ry="7" fill="#f8f3e7" opacity=".7"/></g></g></svg>