<svg xmlns="http://www.w3.org/2000/svg" aria-hidden="true">
  <symbol id="uy-icon-apps" viewBox="0 0 24 24" fill="none" stroke="currentColor" stroke-width="1.9" stroke-linecap="round" stroke-linejoin="round">
    <rect x="4" y="4" width="5" height="5" rx="1"/>
    <rect x="15" y="4" width="5" height="5" rx="1"/>
    <rect x="4" y="15" width="5" height="5" rx="1"/>
    <rect x="15" y="15" width="5" height="5" rx="1"/>
  </symbol>
  <symbol id="uy-icon-clients" viewBox="0 0 24 24" fill="none" stroke="currentColor" stroke-width="1.9" stroke-linecap="round" stroke-linejoin="round">
    <path d="M16.5 20v-1.7c0-2.2-1.8-4-4-4h-5c-2.2 0-4 1.8-4 4V20"/>
    <circle cx="10" cy="7.4" r="3.2"/>
    <path d="M17 14.4c2.1.3 3.5 1.7 3.5 3.9V20"/>
    <path d="M16 4.5a3.1 3.1 0 0 1 0 5.9"/>
  </symbol>
  <symbol id="uy-icon-budgets" viewBox="0 0 24 24" fill="none" stroke="currentColor" stroke-width="1.9" stroke-linecap="round" stroke-linejoin="round">
    <rect x="4" y="3.5" width="16" height="17" rx="2.4"/>
    <path d="M8 8h8"/>
    <path d="M8 12h3"/>
    <path d="M8 16h2"/>
    <path d="M15.2 15.3c-.5-.4-1.1-.6-1.9-.6-1 0-1.8.5-1.8 1.2 0 .8.7 1.1 2 1.4 1.2.3 1.8.7 1.8 1.5 0 .8-.8 1.4-2 1.4-.9 0-1.7-.3-2.3-.8"/>
    <path d="M13.2 14v6"/>
  </symbol>
  <symbol id="uy-icon-documentation" viewBox="0 0 24 24" fill="none" stroke="currentColor" stroke-width="1.9" stroke-linecap="round" stroke-linejoin="round">
    <rect x="5" y="3" width="14" height="18" rx="2"/>
    <path d="M9 3.2h6v3H9z"/>
    <path d="m8.2 13 2.2 2.2 5.2-5.2"/>
  </symbol>
  <symbol id="uy-icon-equipment" viewBox="0 0 24 24" fill="none" stroke="currentColor" stroke-width="1.9" stroke-linecap="round" stroke-linejoin="round">
    <circle cx="7" cy="18" r="2"/>
    <circle cx="17.5" cy="18" r="2"/>
    <path d="M3.5 16h2l1.3-5.6h6.7l1.3 5.6h.8"/>
    <path d="M13.5 10.4 16 7h3"/>
    <path d="M16 7v9"/>
    <path d="M5.8 13.2h8.4"/>
  </symbol>
  <symbol id="uy-icon-groundskeeper-ai" viewBox="0 0 24 24" fill="none" stroke="currentColor" stroke-width="1.9" stroke-linecap="round" stroke-linejoin="round">
    <rect x="4" y="6" width="16" height="13" rx="3"/>
    <path d="M9 6V4.5A2.5 2.5 0 0 1 11.5 2h1A2.5 2.5 0 0 1 15 4.5V6"/>
    <circle cx="9" cy="12" r="1"/>
    <circle cx="15" cy="12" r="1"/>
    <path d="M9 16h6"/>
    <path d="M2 11v4M22 11v4"/>
  </symbol>
  <symbol id="uy-icon-home" viewBox="0 0 24 24" fill="none" stroke="currentColor" stroke-width="1.9" stroke-linecap="round" stroke-linejoin="round">
    <path d="M3 10.8 12 3l9 7.8"/>
    <path d="M5.2 9.7V21h13.6V9.7"/>
    <path d="M9.3 21v-6.5h5.4V21"/>
  </symbol>
  <symbol id="uy-icon-import-export" viewBox="0 0 24 24" fill="none" stroke="currentColor" stroke-width="1.9" stroke-linecap="round" stroke-linejoin="round">
    <path d="M8 3v14"/>
    <path d="m4.5 6.5 3.5-3.5 3.5 3.5"/>
    <path d="M16 21V7"/>
    <path d="m12.5 17.5 3.5 3.5 3.5-3.5"/>
  </symbol>
  <symbol id="uy-icon-leads" viewBox="0 0 24 24" fill="none" stroke="currentColor" stroke-width="1.9" stroke-linecap="round" stroke-linejoin="round">
    <path d="M21 3 10.4 13.6"/>
    <path d="m21 3-6.7 18-3.9-7.4L3 9.7 21 3Z"/>
  </symbol>
  <symbol id="uy-icon-money" viewBox="0 0 24 24" fill="none" stroke="currentColor" stroke-width="1.9" stroke-linecap="round" stroke-linejoin="round">
    <circle cx="12" cy="12" r="9"/>
    <path d="M15.2 8.2c-.7-.7-1.8-1.2-3.2-1.2-1.7 0-3 .9-3 2.2 0 1.4 1.2 2 3.2 2.5 2.2.5 3.1 1.2 3.1 2.7 0 1.5-1.4 2.6-3.4 2.6-1.5 0-2.8-.5-3.7-1.5"/>
    <path d="M12 5.2v13.6"/>
  </symbol>
  <symbol id="uy-icon-more-horizontal" viewBox="0 0 24 24" fill="none" stroke="currentColor" stroke-width="1.9" stroke-linecap="round" stroke-linejoin="round">
    <circle cx="5" cy="12" r="1.2" fill="currentColor" stroke="none"/>
    <circle cx="12" cy="12" r="1.2" fill="currentColor" stroke="none"/>
    <circle cx="19" cy="12" r="1.2" fill="currentColor" stroke="none"/>
  </symbol>
  <symbol id="uy-icon-notifications" viewBox="0 0 24 24" fill="none" stroke="currentColor" stroke-width="1.9" stroke-linecap="round" stroke-linejoin="round">
    <path d="M18 8a6 6 0 0 0-12 0c0 7-3 7-3 9h18c0-2-3-2-3-9"/>
    <path d="M10 21h4"/>
  </symbol>
  <symbol id="uy-icon-route-planner" viewBox="0 0 24 24" fill="none" stroke="currentColor" stroke-width="1.9" stroke-linecap="round" stroke-linejoin="round">
    <path d="M12 21s6.5-5.7 6.5-11A6.5 6.5 0 1 0 5.5 10c0 5.3 6.5 11 6.5 11Z"/>
    <circle cx="12" cy="10" r="2.2"/>
  </symbol>
  <symbol id="uy-icon-sign-out" viewBox="0 0 24 24" fill="none" stroke="currentColor" stroke-width="1.9" stroke-linecap="round" stroke-linejoin="round">
    <path d="M10 4H6a2 2 0 0 0-2 2v12a2 2 0 0 0 2 2h4"/>
    <path d="M14 8l4 4-4 4"/>
    <path d="M18 12H9"/>
  </symbol>
  <symbol id="uy-icon-tools" viewBox="0 0 24 24" fill="none" stroke="currentColor" stroke-width="1.9" stroke-linecap="round" stroke-linejoin="round">
    <path d="M14.8 6.2a5 5 0 0 0-6.7 6.7L3 18l3 3 5.1-5.1a5 5 0 0 0 6.7-6.7l-3.1 3.1-3-3 3.1-3.1Z"/>
  </symbol>
  <symbol id="uy-icon-work" viewBox="0 0 24 24" fill="none" stroke="currentColor" stroke-width="1.9" stroke-linecap="round" stroke-linejoin="round">
    <rect x="3" y="7" width="18" height="13" rx="2.2"/>
    <path d="M8.5 7V5.2c0-1.2.9-2.2 2.1-2.2h2.8c1.2 0 2.1 1 2.1 2.2V7"/>
    <path d="M3 11.2c2.6 1.5 5.6 2.3 9 2.3s6.4-.8 9-2.3"/>
    <path d="M10 13.5h4"/>
  </symbol>
</svg>
