<svg xmlns="http://www.w3.org/2000/svg" width="640" height="220" viewBox="0 0 640 220" fill="none"><rect width="640" height="220" rx="24" fill="#F2F3E9"/><path d="M-20 160C70 100 120 180 220 110C320 40 390 120 480 72C550 35 620 55 690 20" stroke="#D6DDC8" stroke-width="8"/><path d="M60 0V220M210 0V220M365 0V220M520 0V220" stroke="#DDE4D3" stroke-width="5"/><path d="M0 70H640M0 145H640" stroke="#E1E8D8" stroke-width="5"/><g fill="#5F8B62"><circle cx="120" cy="70" r="10"/><circle cx="255" cy="125" r="10"/><circle cx="390" cy="82" r="10"/><circle cx="510" cy="150" r="10"/></g><g fill="#BBD2A5"><circle cx="70" cy="190" r="18"/><circle cx="585" cy="170" r="18"/></g></svg>